<?xml version="1.0" encoding="UTF-8" standalone="no"?><svg width="300" xmlns="http://www.w3.org/2000/svg" height="69.891"><defs id="defs4"><style id="style6">.cls-1{fill:#075}.cls-2{fill:#fff}.cls-3{fill:#b2d1c8}</style></defs><g id="Raute"><path id="path11" d="M0 55.6c0-2.32 1.04-3.9 3.9-3.9 1.34 0 2.46.13 3.92.4v-5.3l1.5-.2v17.98H7.96l-.08-1.2C6.6 64.36 5 64.85 3.6 64.85c-2.48 0-3.6-1.22-3.6-3.5zm7.82-2.1c-1.38-.3-2.74-.45-3.96-.45-1.67 0-2.35.83-2.35 2.54v5.74c0 1.45.48 2.15 2.2 2.15 1.57 0 2.92-.65 4.12-1.6z"/><path id="path13" d="M21.58 64.58h-1.3l-.1-.98c-1.23.74-2.64 1.24-4.3 1.24-2.25 0-3.3-1.27-3.3-3.53 0-2.66 1.23-3.48 3.73-3.48h3.77v-2.47c0-1.73-.92-2.3-3-2.3-1.25 0-2.58.18-3.75.4l-.24-1.26c1.02-.3 2.6-.5 3.9-.5 3.3 0 4.6 1.3 4.6 3.66zm-1.5-5.42h-3.72c-1.74 0-2.26.52-2.26 2.18 0 1.48.3 2.15 2.08 2.15 1.25 0 2.74-.5 3.9-1.3z"/><path id="path15" d="M31.64 64.35a7.82 7.82 0 0 1-2.65.5c-2.02 0-2.88-.74-2.88-2.74v-8.84h-2.46v-1.3h2.45v-2.98l1.53-.2v3.18h3.88l-.15 1.3h-3.72v8.7c0 1.12.15 1.58 1.46 1.58a7.95 7.95 0 0 0 2.25-.36z"/><path id="path17" d="M42.6 64.58h-1.32l-.1-.98c-1.22.74-2.63 1.24-4.3 1.24-2.24 0-3.28-1.27-3.28-3.53 0-2.66 1.22-3.48 3.72-3.48h3.76v-2.47c0-1.73-.92-2.3-3-2.3-1.25 0-2.58.18-3.76.4l-.23-1.26c1-.3 2.6-.5 3.9-.5 3.28 0 4.6 1.3 4.6 3.66zm-1.52-5.42h-3.7c-1.76 0-2.28.52-2.28 2.18 0 1.48.32 2.15 2.1 2.15 1.24 0 2.72-.5 3.87-1.3z"/><path id="path19" d="M55.73 63.52c1.3 0 2.77-.26 4.02-.6l.26 1.22c-1.17.4-2.83.7-4.37.7-3.57 0-4.72-1.84-4.72-4.6V56.3c0-2.6 1.18-4.6 4.75-4.6s4.62 2 4.62 4.6v2.43h-7.85v1.58c0 2.26.78 3.22 3.3 3.22zm-3.3-6.14h6.35v-1.14c0-2.13-.75-3.24-3.12-3.24-2.38 0-3.24 1.1-3.24 3.24z"/><path id="path21" d="M61.83 64.58l4.28-6.35-4.2-6.27h1.63l3.4 5.05 3.4-5.04h1.62l-4.22 6.27 4.3 6.35h-1.65l-3.46-5.16-3.44 5.16z"/><path id="path23" d="M83.57 60.95c0 2.3-1.04 3.9-3.9 3.9-1.34 0-2.46-.14-3.92-.43v5.26l-1.5.2V51.97h1.37l.08 1.2c1.28-.97 2.87-1.46 4.28-1.46 2.47 0 3.6 1.22 3.6 3.5zm-7.82 2.1c1.38.28 2.74.44 3.96.44 1.68 0 2.36-.84 2.36-2.55V55.2c0-1.45-.47-2.15-2.2-2.15-1.56 0-2.9.65-4.1 1.6z"/><path id="path25" d="M91.08 63.52c1.3 0 2.76-.26 4-.6l.27 1.22c-1.17.4-2.84.7-4.38.7-3.57 0-4.72-1.84-4.72-4.6V56.3c0-2.6 1.18-4.6 4.75-4.6s4.6 2 4.6 4.6v2.43h-7.83v1.58c0 2.26.78 3.22 3.3 3.22zm-3.3-6.14h6.34v-1.14c0-2.13-.75-3.24-3.12-3.24s-3.23 1.1-3.23 3.24z"/><path id="path27" d="M104.26 53.18c-1.32.57-2.8 1.53-4 2.33v9.08h-1.52V51.96h1.35l.07 1.92c1.36-.88 2.7-1.74 3.9-2.18z"/><path id="path29" d="M113.8 64.35a7.82 7.82 0 0 1-2.65.5c-2 0-2.87-.74-2.87-2.74v-8.84h-2.45v-1.3h2.45v-2.98l1.5-.2v3.18h3.9l-.16 1.3h-3.73v8.7c0 1.12.15 1.58 1.45 1.58a7.95 7.95 0 0 0 2.27-.36z"/><path id="path31" d="M119.6 64.84c-1.27 0-2.78-.26-3.72-.65l.26-1.23a12.52 12.52 0 0 0 3.37.52c2.35 0 2.82-.45 2.82-2.06 0-1.8-.05-2-2.94-2.67-3.18-.75-3.44-1.52-3.44-3.83 0-2.1 1-3.24 4.14-3.24 1.17 0 2.6.15 3.6.44l-.16 1.27a20.3 20.3 0 0 0-3.54-.35c-2.22 0-2.53.57-2.53 1.94 0 1.73.1 1.9 2.45 2.5 3.73.94 3.94 1.53 3.94 3.9 0 2.27-.84 3.44-4.23 3.44z"/><g id="Raute-2"><path id="path34" d="M60.1 38.42l-37-17.48c-1.3-.6-1.3-2.45 0-3.05L60.1.4a4.18 4.18 0 0 1 3.58 0l37.06 17.5c1.3.6 1.3 2.43 0 3.04l-37.06 17.5a4.18 4.18 0 0 1-3.57 0z" class="cls-1" fill="#075"/><path id="rect36" d="M87.34 5.35h6.2v6.2h-6.2z" class="cls-1" fill="#075"/><path id="rect38" d="M81.12 11.56h6.2v6.2h-6.2z" class="cls-2" fill="#fff"/><path id="rect40" d="M87.34 17.77h6.2v6.2h-6.2z" class="cls-3" fill="#b2d1c8"/><path id="rect42" d="M74.9 17.77h6.22v6.2h-6.2z" class="cls-2" fill="#fff"/><path id="rect44" d="M81.12 23.98h6.2v6.2h-6.2z" class="cls-2" fill="#fff"/></g></g><g id="Leistungsspektrum"><path id="path47" d="M152.26 22.7c-.84 0-1.9-.15-2.73-.47l.16-.7a9.12 9.12 0 0 0 2.6.4c1.64 0 2.1-.5 2.1-1.74 0-1.5-.02-1.66-2.17-2.16-2.34-.54-2.6-.96-2.6-2.9 0-1.6.58-2.42 3-2.42a10 10 0 0 1 2.5.34l-.1.72c-.7-.16-1.6-.3-2.37-.3-1.92 0-2.18.48-2.18 1.68 0 1.57.05 1.65 2.08 2.16 2.55.64 2.7 1 2.7 2.83 0 1.6-.54 2.55-3 2.55z"/><path id="path49" d="M160.25 22.55l-1.05 2.87h-.82l1.06-2.87h-.48l-2.4-7.08h.86l2.18 6.48 2.2-6.48h.85z"/><path id="path51" d="M165.9 22.7c-.72 0-1.56-.15-2.1-.37l.16-.68a6.94 6.94 0 0 0 1.88.3c1.3 0 1.57-.26 1.57-1.16 0-1.03-.02-1.13-1.64-1.5-1.77-.43-1.92-.86-1.92-2.16 0-1.18.57-1.8 2.32-1.8.65 0 1.45.07 2 .23l-.1.7a11.26 11.26 0 0 0-1.97-.2c-1.24 0-1.42.33-1.42 1.1 0 .98.06 1.08 1.37 1.4 2.08.54 2.2.87 2.2 2.2 0 1.27-.47 1.93-2.36 1.93z"/><path id="path53" d="M174 22.42a4.34 4.34 0 0 1-1.48.28c-1.12 0-1.6-.4-1.6-1.53V16.2h-1.36v-.73h1.36V13.8l.85-.12v1.8h2.16l-.08.72h-2.08v4.88c0 .63.08.9.8.9a4.4 4.4 0 0 0 1.28-.2z"/><path id="path55" d="M178.08 21.95c.72 0 1.53-.14 2.23-.33l.16.68c-.66.24-1.6.4-2.44.4-2 0-2.64-1.03-2.64-2.57V17.9c0-1.46.66-2.57 2.65-2.57 2 0 2.57 1.12 2.57 2.57v1.36h-4.37v.9c0 1.26.44 1.8 1.85 1.8zm-1.85-3.44h3.55v-.63c0-1.2-.42-1.82-1.75-1.82s-1.8.63-1.8 1.82z"/><path id="path57" d="M191.38 22.55v-5.73c0-.52-.28-.7-.77-.7-.66 0-1.82.34-2.7.8v5.63h-.86v-5.73c0-.52-.28-.7-.77-.7-.58 0-1.83.34-2.72.8v5.63h-.84v-7.07h.75l.06.64c.77-.37 2.03-.8 2.9-.8.75 0 1.17.3 1.36.8.8-.38 2.1-.8 2.96-.8 1.1 0 1.5.64 1.5 1.6v5.64z"/><path id="path59" d="M199.82 20.2c0 1.58-.7 2.5-2.84 2.5-.6 0-1.7-.1-2.37-.26v-9.86l.86-.12v3.4c.58-.3 1.36-.53 2.32-.53 1.43 0 2.04.8 2.04 2.06zm-4.36 1.58a9.15 9.15 0 0 0 1.62.15c1.53 0 1.9-.64 1.9-1.7v-2.85c0-.85-.4-1.24-1.32-1.24-.85 0-1.53.23-2.2.6z"/><path id="path61" d="M204.33 21.95c.72 0 1.53-.14 2.23-.33l.15.68c-.65.24-1.58.4-2.43.4-2 0-2.64-1.03-2.64-2.57V17.9c0-1.46.66-2.57 2.65-2.57s2.57 1.12 2.57 2.57v1.36h-4.37v.9c0 1.26.44 1.8 1.85 1.8zm-1.85-3.44h3.55v-.63c0-1.2-.42-1.82-1.75-1.82s-1.8.63-1.8 1.82z"/><path id="path63" d="M212.04 16.16c-.74.32-1.55.85-2.23 1.3v5.1h-.84v-7.1h.76l.04 1.1c.76-.5 1.52-1 2.18-1.23z"/><path id="path65" d="M218.22 22.55h-.73l-.06-.55a4.47 4.47 0 0 1-2.4.7c-1.25 0-1.83-.7-1.83-1.98 0-1.5.7-1.96 2.08-1.96h2.1v-1.38c0-.98-.5-1.3-1.67-1.3a11 11 0 0 0-2.08.24l-.13-.72c.55-.16 1.44-.28 2.17-.28 1.83 0 2.56.73 2.56 2.05zm-.84-3.04h-2.07c-.96 0-1.25.3-1.25 1.23 0 .83.17 1.2 1.16 1.2.7 0 1.54-.27 2.18-.72z"/><path id="path67" d="M224.2 22.42a4.34 4.34 0 0 1-1.5.28c-1.1 0-1.6-.4-1.6-1.53V16.2h-1.35v-.73h1.36V13.8l.86-.12v1.8h2.16l-.08.72h-2.08v4.88c0 .63.08.9.8.9a4.4 4.4 0 0 0 1.28-.2z"/><path id="path69" d="M226.7 15.47v5.73c0 .52.3.7.78.7.58 0 1.83-.34 2.72-.8v-5.63h.84v7.08h-.74l-.06-.64c-.75.37-2.02.8-2.87.8-1.1 0-1.5-.63-1.5-1.6v-5.63z"/><path id="path71" d="M237.85 22.55v-5.73c0-.52-.28-.7-.77-.7-.58 0-1.83.34-2.72.8v5.63h-.84v-7.08h.74l.06.64c.75-.35 2.02-.77 2.87-.77 1.1 0 1.5.62 1.5 1.6v5.62z"/><path id="path73" d="M243.5 20.38a4.64 4.64 0 0 1-.93-.08c-.4.32-.55.6-.55.93 0 .28.16.46.64.5.88.08 1.1.1 2.03.17 1.3.1 1.75.7 1.75 1.68 0 1.47-.73 1.98-3.02 1.98a10.43 10.43 0 0 1-2.5-.35l.14-.66a11.63 11.63 0 0 0 2.4.3c1.9 0 2.15-.4 2.15-1.2 0-.7-.3-1-1.13-1.05-.9-.06-1-.06-1.93-.14-1.05-.08-1.4-.62-1.4-1.25 0-.37.16-.8.67-1.18-.7-.4-1.05-1.12-1.05-2.12v-.1c0-1.6.7-2.47 2.7-2.47.5 0 .87.04 1.2.14h1.95v.6l-.9.08c.33.4.48.98.48 1.66v.1c0 1.6-.86 2.5-2.72 2.5zm0-4.33c-1.4 0-1.9.44-1.9 1.73v.15c0 1.33.62 1.73 1.9 1.73 1.3 0 1.92-.45 1.92-1.73v-.15c0-1.27-.5-1.72-1.9-1.72z"/><path id="path75" d="M152.26 40.14c-.84 0-1.9-.15-2.73-.47l.16-.7a9.12 9.12 0 0 0 2.6.4c1.64 0 2.1-.5 2.1-1.73 0-1.5-.02-1.66-2.17-2.15-2.34-.55-2.6-.97-2.6-2.92 0-1.58.58-2.4 3-2.4a10 10 0 0 1 2.5.32l-.1.73c-.7-.16-1.6-.3-2.37-.3-1.92 0-2.18.47-2.18 1.68 0 1.58.05 1.65 2.08 2.16 2.55.64 2.7 1 2.7 2.83 0 1.58-.54 2.54-3 2.54z"/><path id="path77" d="M159.96 40.14c-2 0-2.75-1.12-2.75-2.57v-2.23c0-1.45.77-2.57 2.76-2.57 2 0 2.75 1.12 2.75 2.57v2.23c0 1.45-.75 2.57-2.74 2.57zm1.9-4.83c0-1.18-.57-1.77-1.9-1.77s-1.9.6-1.9 1.78v2.3c0 1.2.58 1.78 1.9 1.78s1.9-.6 1.9-1.78z"/><path id="path79" d="M168.58 30.6a6.94 6.94 0 0 0-1.28-.14c-.8 0-1.04.3-1.04 1.07v1.38h2.18l-.1.74h-2.08V40h-.85v-6.36h-1.3v-.72h1.32v-1.5c0-1.15.7-1.7 1.83-1.7a5.65 5.65 0 0 1 1.45.22z"/><path id="path81" d="M173.66 39.86a4.34 4.34 0 0 1-1.48.28c-1.12 0-1.6-.4-1.6-1.52v-4.98h-1.37v-.72h1.37v-1.68l.85-.1v1.77h2.16l-.08.74h-2.08v4.88c0 .63.08.9.8.9a4.4 4.4 0 0 0 1.28-.2z"/><path id="path83" d="M176.14 40l-1.6-7.1h.8l1.44 6.53 1.92-6.5h1.13l1.9 6.5 1.47-6.5h.8l-1.6 7.06h-1.28l-1.86-6.48L177.4 40z"/><path id="path85" d="M190.33 40h-.73l-.06-.56a4.47 4.47 0 0 1-2.4.7c-1.25 0-1.83-.7-1.83-1.98 0-1.5.7-1.96 2.1-1.96h2.1v-1.38c0-.98-.52-1.3-1.68-1.3a11 11 0 0 0-2.1.24l-.13-.72c.56-.16 1.45-.28 2.17-.28 1.84 0 2.56.73 2.56 2.05zm-.85-3.04h-2.06c-.97 0-1.26.3-1.26 1.22 0 .83.17 1.2 1.16 1.2.7 0 1.53-.28 2.17-.72z"/><path id="path87" d="M195.74 33.6c-.74.32-1.56.86-2.24 1.3V40h-.84v-7.08h.75l.06 1.07c.75-.5 1.5-.98 2.18-1.23z"/><path id="path89" d="M199.5 39.4c.74 0 1.55-.15 2.25-.34l.14.7c-.66.22-1.6.38-2.45.38-2 0-2.63-1.03-2.63-2.57v-2.23c0-1.45.66-2.57 2.65-2.57 2 0 2.57 1.12 2.57 2.57v1.37h-4.38v.9c0 1.26.44 1.8 1.85 1.8zm-1.84-3.45h3.55v-.64c.02-1.18-.4-1.8-1.73-1.8s-1.8.62-1.8 1.8z"/><path id="path91" d="M206.48 39.4c.73 0 1.54-.15 2.24-.34l.14.7c-.65.22-1.58.38-2.44.38-2 0-2.63-1.03-2.63-2.57v-2.23c0-1.45.64-2.57 2.63-2.57 2 0 2.58 1.12 2.58 2.57v1.37h-4.37v.9c0 1.26.44 1.8 1.86 1.8zm-1.85-3.45h3.55v-.64c0-1.18-.42-1.8-1.75-1.8-1.32 0-1.8.62-1.8 1.8z"/><path id="path93" d="M215.45 40v-5.73c0-.53-.28-.72-.77-.72-.58 0-1.83.35-2.72.82V40h-.84v-7.1h.74l.06.65c.75-.36 2.02-.78 2.87-.78 1.1 0 1.5.62 1.5 1.6V40z"/><path id="path95" d="M222.34 39.86a4.34 4.34 0 0 1-1.5.28c-1.1 0-1.6-.4-1.6-1.52v-4.98h-1.35v-.72h1.36v-1.68l.84-.1v1.77h2.16l-.08.74h-2.08v4.88c0 .63.1.9.8.9a4.4 4.4 0 0 0 1.28-.2z"/><path id="path97" d="M224.82 40l-1.6-7.1h.78l1.46 6.53 1.92-6.5h1.13l1.9 6.5 1.48-6.5h.8l-1.6 7.06h-1.28l-1.86-6.48-1.86 6.47z"/><path id="path99" d="M234.28 31.58v-1.56h.85v1.56zm0 8.4v-7.07h.85V40z"/><path id="path101" d="M238 37.73c0 1.26.52 1.65 1.84 1.65a9.03 9.03 0 0 0 1.5-.14l.1.7a6.9 6.9 0 0 1-1.6.2c-2 0-2.68-.9-2.68-2.44v-2.5c0-1.52.7-2.43 2.68-2.43a6.9 6.9 0 0 1 1.6.2l-.1.7a9.03 9.03 0 0 0-1.5-.14c-1.33 0-1.83.4-1.83 1.65z"/><path id="path103" d="M243.4 40V30l.85-.1v10.07zm5.07-7.1l-2.82 3.5 2.93 3.6h-1.07l-2.87-3.6 2.8-3.5z"/><path id="path105" d="M250.26 40V30l.84-.1v10.07z"/><path id="path107" d="M254.35 32.91v5.74c0 .53.28.7.77.7.58 0 1.83-.34 2.72-.8V32.9h.84V40h-.74l-.06-.65c-.76.37-2.02.8-2.88.8-1.1 0-1.5-.64-1.5-1.6V32.9z"/><path id="path109" d="M265.48 40v-5.73c0-.53-.28-.72-.77-.72-.57 0-1.82.35-2.7.82V40h-.85v-7.1h.74l.05.65c.76-.36 2.02-.78 2.88-.78 1.1 0 1.5.62 1.5 1.6V40z"/><path id="path111" d="M271.15 37.83a4.64 4.64 0 0 1-.94-.1c-.4.33-.55.6-.55.94 0 .28.16.47.64.5.88.08 1.08.1 2.03.17 1.3.1 1.76.7 1.76 1.7 0 1.45-.74 1.96-3.04 1.96a10.43 10.43 0 0 1-2.48-.35l.13-.66a11.63 11.63 0 0 0 2.4.28c1.9 0 2.16-.4 2.16-1.2 0-.7-.3-1-1.14-1.04-.9-.06-.97-.06-1.92-.13-1.04-.08-1.4-.62-1.4-1.24 0-.38.17-.82.68-1.2-.72-.4-1.05-1.1-1.05-2.12v-.1c0-1.6.7-2.47 2.72-2.47.48 0 .85.04 1.2.14h1.94v.62l-.9.07c.32.4.47.97.47 1.65v.1c0 1.6-.86 2.48-2.72 2.48zm0-4.33c-1.4 0-1.9.43-1.9 1.73v.14c0 1.34.6 1.73 1.9 1.73s1.9-.45 1.9-1.73v-.14c0-1.28-.5-1.73-1.9-1.73z"/><path id="path113" d="M150.67 57.44h-.86v-9.68h.87z"/><path id="path115" d="M157.63 57.44V51.7c0-.5-.28-.7-.77-.7-.6 0-1.84.35-2.72.8v5.64h-.84v-7.08h.74l.06.64c.75-.37 2.02-.8 2.87-.8 1.1 0 1.5.64 1.5 1.6v5.64z"/><path id="path117" d="M164.63 48.03a6.94 6.94 0 0 0-1.28-.13c-.8 0-1.05.3-1.05 1.08v1.38h2.18l-.1.73h-2.08v6.34h-.84V51.1h-1.33v-.74h1.33v-1.48c0-1.17.7-1.7 1.83-1.7a5.65 5.65 0 0 1 1.44.2z"/><path id="path119" d="M168.44 57.58c-2 0-2.75-1.12-2.75-2.57v-2.2c0-1.47.75-2.6 2.74-2.6 2 0 2.74 1.13 2.74 2.6V55c0 1.46-.75 2.58-2.74 2.58zm1.9-4.82c0-1.2-.58-1.8-1.9-1.8-1.33 0-1.9.6-1.9 1.8v2.28c0 1.2.57 1.78 1.9 1.78s1.9-.6 1.9-1.78z"/><path id="path121" d="M176.38 51.04c-.74.32-1.56.86-2.24 1.3v5.1h-.84v-7.08h.75l.05 1.07c.76-.5 1.5-.97 2.18-1.22z"/><path id="path123" d="M186.5 57.44V51.7c0-.5-.3-.7-.78-.7-.67 0-1.83.35-2.72.8v5.64h-.84V51.7c0-.5-.28-.7-.77-.7-.6 0-1.84.35-2.72.8v5.64h-.85v-7.08h.75l.06.64c.76-.37 2.02-.8 2.88-.8.75 0 1.18.3 1.36.8.82-.38 2.1-.8 2.97-.8 1.1 0 1.5.64 1.5 1.6v5.64z"/><path id="path125" d="M194.46 57.44h-.73l-.06-.56a4.47 4.47 0 0 1-2.4.7c-1.24 0-1.83-.7-1.83-1.97 0-1.5.7-1.96 2.08-1.96h2.1v-1.38c0-.97-.5-1.3-1.67-1.3a11 11 0 0 0-2.1.24l-.12-.7c.56-.17 1.45-.3 2.18-.3 1.84 0 2.57.73 2.57 2.06zm-.85-3.04h-2.05c-.97 0-1.26.3-1.26 1.22 0 .83.16 1.2 1.15 1.2.7 0 1.53-.27 2.17-.72z"/><path id="path127" d="M200.43 57.3a4.34 4.34 0 0 1-1.48.3c-1.12 0-1.6-.42-1.6-1.54V51.1H196v-.74h1.35V48.7l.85-.13v1.8h2.16l-.1.72h-2.06v4.87c0 .62.08.9.8.9a4.4 4.4 0 0 0 1.28-.22z"/><path id="path129" d="M202.17 49.02v-1.55h.85v1.55zm0 8.42v-7.08h.85v7.08z"/><path id="path131" d="M207.87 57.58c-2 0-2.75-1.12-2.75-2.57v-2.2c0-1.47.76-2.6 2.75-2.6 2 0 2.75 1.13 2.75 2.6V55c0 1.46-.76 2.58-2.75 2.58zm1.9-4.82c0-1.2-.58-1.8-1.9-1.8s-1.9.6-1.9 1.8v2.28c0 1.2.58 1.78 1.9 1.78 1.33 0 1.9-.6 1.9-1.78z"/><path id="path133" d="M217.06 57.44V51.7c0-.5-.28-.7-.77-.7-.6 0-1.84.35-2.73.8v5.64h-.84v-7.08h.74l.06.64c.75-.37 2.02-.8 2.88-.8 1.1 0 1.5.64 1.5 1.6v5.64z"/><path id="path135" d="M222.16 57.58c-.7 0-1.55-.14-2.08-.36l.15-.68a6.94 6.94 0 0 0 1.88.3c1.3-.02 1.57-.26 1.57-1.16 0-1.02-.03-1.12-1.64-1.5-1.77-.42-1.92-.86-1.92-2.15 0-1.18.58-1.82 2.32-1.82.66 0 1.46.1 2 .26l-.08.7a11.26 11.26 0 0 0-1.97-.2c-1.24 0-1.4.33-1.4 1.1 0 .97.05 1.07 1.35 1.4 2.08.53 2.2.87 2.2 2.2 0 1.27-.48 1.92-2.36 1.92z"/><path id="path137" d="M229.3 57.44H228l-2.4-7.08h.87l2.18 6.48 2.2-6.48h.85z"/><path id="path139" d="M235.48 56.84c.72 0 1.54-.14 2.23-.33l.16.7c-.66.22-1.6.38-2.44.38-2 0-2.63-1.03-2.63-2.57v-2.2c0-1.47.64-2.6 2.63-2.6 2 0 2.57 1.13 2.57 2.6v1.35h-4.37v.9c0 1.25.43 1.8 1.84 1.8zm-1.85-3.44h3.55v-.64c0-1.2-.42-1.82-1.75-1.82s-1.8.63-1.8 1.82z"/><path id="path141" d="M243.2 51.04c-.75.32-1.56.86-2.24 1.3v5.1h-.85v-7.08h.77l.04 1.07c.77-.5 1.53-.97 2.2-1.22z"/><path id="path143" d="M249.37 57.44h-.72l-.06-.56a4.47 4.47 0 0 1-2.4.7c-1.26 0-1.84-.7-1.84-1.97 0-1.5.68-1.96 2.07-1.96h2.1v-1.38c0-.97-.5-1.3-1.67-1.3a11 11 0 0 0-2.1.24l-.12-.7c.56-.17 1.45-.3 2.18-.3 1.83 0 2.56.73 2.56 2.06zm-.84-3.04h-2.06c-.98 0-1.27.3-1.27 1.22 0 .83.18 1.2 1.17 1.2.7 0 1.52-.27 2.16-.72z"/><path id="path145" d="M254.78 51.04c-.74.32-1.55.86-2.23 1.3v5.1h-.85v-7.08h.76l.04 1.07c.76-.5 1.5-.97 2.18-1.22z"/><path id="path147" d="M261.44 55.08c0 1.6-.7 2.5-2.84 2.5-.6 0-1.72-.1-2.37-.26v-9.85l.84-.12v3.4c.58-.3 1.37-.53 2.33-.53 1.42 0 2.04.8 2.04 2.06zm-4.36 1.6a9.15 9.15 0 0 0 1.62.13c1.53 0 1.9-.63 1.9-1.7v-2.84c0-.84-.4-1.23-1.32-1.23-.86 0-1.54.23-2.2.6z"/><path id="path149" d="M265.94 56.84c.73 0 1.54-.14 2.24-.33l.14.7c-.65.22-1.58.38-2.44.38-2 0-2.63-1.03-2.63-2.57v-2.2c0-1.47.65-2.6 2.65-2.6s2.57 1.13 2.57 2.6v1.35h-4.38v.9c0 1.25.43 1.8 1.84 1.8zm-1.84-3.44h3.54v-.64c0-1.2-.42-1.82-1.74-1.82s-1.8.63-1.8 1.82z"/><path id="path151" d="M270.58 49.02v-1.55h.84v1.55zm0 8.42v-7.08h.84v7.08z"/><path id="path153" d="M277.55 57.3a4.34 4.34 0 0 1-1.5.3c-1.1 0-1.6-.42-1.6-1.54V51.1h-1.35v-.74h1.37V48.7l.84-.13v1.8h2.18l-.1.72h-2.07v4.87c0 .62.1.9.82.9a4.4 4.4 0 0 0 1.26-.22z"/><path id="path155" d="M280.06 50.36v5.73c0 .5.28.7.77.7.58 0 1.83-.35 2.72-.82v-5.62h.84v7.08h-.75l-.06-.64c-.77.36-2.03.78-2.9.78-1.1 0-1.5-.62-1.5-1.6v-5.62z"/><path id="path157" d="M291.2 57.44V51.7c0-.5-.3-.7-.77-.7-.6 0-1.84.35-2.72.8v5.64h-.83v-7.08h.74l.06.64c.76-.37 2.02-.8 2.88-.8 1.1 0 1.5.64 1.5 1.6v5.64z"/><path id="path159" d="M296.86 55.27a4.64 4.64 0 0 1-.94-.1c-.4.33-.55.6-.55.94 0 .3.16.48.64.52l2.04.16c1.3.1 1.76.7 1.76 1.7 0 1.46-.73 1.97-3.02 1.97a10.43 10.43 0 0 1-2.5-.35l.14-.67a11.63 11.63 0 0 0 2.38.3c1.92 0 2.17-.4 2.17-1.22 0-.7-.3-.96-1.13-1.02-.9-.06-.98-.06-1.92-.13-1.05-.1-1.4-.63-1.4-1.25 0-.38.16-.82.67-1.2-.72-.4-1.06-1.1-1.06-2.12v-.08c0-1.6.72-2.5 2.72-2.5.48 0 .86.05 1.2.16H300v.6l-.9.08c.33.4.48.97.48 1.65v.08c0 1.6-.87 2.5-2.73 2.5zm0-4.33c-1.4 0-1.9.43-1.9 1.73v.14c0 1.35.6 1.74 1.9 1.74s1.9-.45 1.9-1.73v-.13c0-1.28-.47-1.73-1.9-1.73z"/><path id="rect162" d="M136.26 0h.84v69.9h-.84z"/></g></svg>